<mxfile host="drawio-plugin" modified="2023-01-25T23:07:51.955Z" agent="5.0 (X11; Linux x86_64) AppleWebKit/537.36 (KHTML, like Gecko) Chrome/104.0.5112.102 Safari/537.36" etag="kCvT5h1hdoIN706nCySe" version="20.5.3" type="embed"><diagram id="23iRSUPoRavnBvh4doch" name="Page-1"><mxGraphModel dx="713" dy="677" grid="1" gridSize="10" guides="1" tooltips="1" connect="1" arrows="1" fold="1" page="1" pageScale="1" pageWidth="827" pageHeight="1169" math="0" shadow="0"><root><mxCell id="0"/><mxCell id="1" parent="0"/><mxCell id="20" value="" style="rounded=0;whiteSpace=wrap;html=1;fillColor=#f5f5f5;strokeColor=#666666;fontColor=#333333;" vertex="1" parent="1"><mxGeometry x="140" y="160" width="380" height="360" as="geometry"/></mxCell><mxCell id="2" value="immunopipeline-spark-app" style="rounded=0;whiteSpace=wrap;html=1;fillColor=#d5e8d4;strokeColor=#82b366;" vertex="1" parent="1"><mxGeometry x="160" y="200" width="160" height="40" as="geometry"/></mxCell><mxCell id="3" value="immunopipeline-torch-app" style="rounded=0;whiteSpace=wrap;html=1;fillColor=#d5e8d4;strokeColor=#82b366;" vertex="1" parent="1"><mxGeometry x="340" y="200" width="160" height="40" as="geometry"/></mxCell><mxCell id="4" value="/data-prep/load-samples" style="rounded=0;whiteSpace=wrap;html=1;align=left;fillColor=#fff2cc;strokeColor=#d6b656;" vertex="1" parent="1"><mxGeometry x="160" y="240" width="160" height="20" as="geometry"/></mxCell><mxCell id="5" value="/data-prep/filter-samples" style="rounded=0;whiteSpace=wrap;html=1;align=left;fillColor=#fff2cc;strokeColor=#d6b656;" vertex="1" parent="1"><mxGeometry x="160" y="260" width="160" height="20" as="geometry"/></mxCell><mxCell id="7" value="/experiment/build-features" style="rounded=0;whiteSpace=wrap;html=1;align=left;fillColor=#ffe6cc;strokeColor=#d79b00;" vertex="1" parent="1"><mxGeometry x="340" y="240" width="160" height="20" as="geometry"/></mxCell><mxCell id="8" value="/experiment/build-labels" style="rounded=0;whiteSpace=wrap;html=1;align=left;fillColor=#ffe6cc;strokeColor=#d79b00;" vertex="1" parent="1"><mxGeometry x="340" y="260" width="160" height="20" as="geometry"/></mxCell><mxCell id="9" value="/experiment/train-model" style="rounded=0;whiteSpace=wrap;html=1;align=left;fillColor=#ffe6cc;strokeColor=#d79b00;" vertex="1" parent="1"><mxGeometry x="340" y="280" width="160" height="20" as="geometry"/></mxCell><mxCell id="10" value="/eval/get-predictions" style="rounded=0;whiteSpace=wrap;html=1;align=left;fillColor=#fff2cc;strokeColor=#d6b656;" vertex="1" parent="1"><mxGeometry x="160" y="280" width="160" height="20" as="geometry"/></mxCell><mxCell id="11" value="/experiment/get-predictions" style="rounded=0;whiteSpace=wrap;html=1;align=left;fillColor=#ffe6cc;strokeColor=#d79b00;" vertex="1" parent="1"><mxGeometry x="340" y="300" width="160" height="20" as="geometry"/></mxCell><mxCell id="12" value="Pipeline" style="rounded=0;whiteSpace=wrap;html=1;fillColor=#dae8fc;strokeColor=#6c8ebf;" vertex="1" parent="1"><mxGeometry x="160" y="320" width="160" height="40" as="geometry"/></mxCell><mxCell id="13" value="/data-prep/load-samples" style="rounded=0;whiteSpace=wrap;html=1;align=left;fillColor=#fff2cc;strokeColor=#d6b656;" vertex="1" parent="1"><mxGeometry x="160" y="360" width="160" height="20" as="geometry"/></mxCell><mxCell id="14" value="/data-prep/filter-samples" style="rounded=0;whiteSpace=wrap;html=1;align=left;fillColor=#fff2cc;strokeColor=#d6b656;" vertex="1" parent="1"><mxGeometry x="160" y="380" width="160" height="20" as="geometry"/></mxCell><mxCell id="15" value="/eval/predictions" style="rounded=0;whiteSpace=wrap;html=1;align=left;fillColor=#fff2cc;strokeColor=#d6b656;" vertex="1" parent="1"><mxGeometry x="160" y="480" width="160" height="20" as="geometry"/></mxCell><mxCell id="16" value="/experiment/build-features" style="rounded=0;whiteSpace=wrap;html=1;align=left;fillColor=#ffe6cc;strokeColor=#d79b00;" vertex="1" parent="1"><mxGeometry x="160" y="400" width="160" height="20" as="geometry"/></mxCell><mxCell id="17" value="/experiment/build-labels" style="rounded=0;whiteSpace=wrap;html=1;align=left;fillColor=#ffe6cc;strokeColor=#d79b00;" vertex="1" parent="1"><mxGeometry x="160" y="420" width="160" height="20" as="geometry"/></mxCell><mxCell id="18" value="/experiment/train-model" style="rounded=0;whiteSpace=wrap;html=1;align=left;fillColor=#ffe6cc;strokeColor=#d79b00;" vertex="1" parent="1"><mxGeometry x="160" y="440" width="160" height="20" as="geometry"/></mxCell><mxCell id="19" value="/experiment/build-predictions" style="rounded=0;whiteSpace=wrap;html=1;align=left;fillColor=#ffe6cc;strokeColor=#d79b00;" vertex="1" parent="1"><mxGeometry x="160" y="460" width="160" height="20" as="geometry"/></mxCell><mxCell id="21" value="Immunopipeline Repo" style="text;html=1;strokeColor=none;fillColor=none;align=center;verticalAlign=middle;whiteSpace=wrap;rounded=0;fontStyle=1" vertex="1" parent="1"><mxGeometry x="140" y="160" width="400" height="40" as="geometry"/></mxCell><mxCell id="22" value="&lt;ul&gt;&lt;li&gt;&lt;span style=&quot;background-color: initial;&quot;&gt;shared executable version&lt;/span&gt;&lt;/li&gt;&lt;li&gt;&lt;span style=&quot;background-color: initial;&quot;&gt;shared build instrumentation&lt;/span&gt;&lt;/li&gt;&lt;li&gt;&lt;span style=&quot;background-color: initial;&quot;&gt;shared library access&lt;/span&gt;&lt;/li&gt;&lt;/ul&gt;" style="text;html=1;strokeColor=none;fillColor=none;align=left;verticalAlign=top;whiteSpace=wrap;rounded=0;" vertex="1" parent="1"><mxGeometry x="320" y="330" width="200" height="170" as="geometry"/></mxCell></root></mxGraphModel></diagram></mxfile>
